<svg width="31" height="29" viewBox="0 0 31 29" fill="none" xmlns="http://www.w3.org/2000/svg">
<path d="M23.7392 27.9805C23.6392 27.9805 23.5392 27.9805 23.4392 27.8805L15.5392 23.0805L7.63923 27.8805C7.43923 27.9805 7.13923 27.9805 6.93923 27.8805C6.73923 27.7805 6.63923 27.4805 6.63923 27.2805L8.53923 17.9805L1.23923 11.7805C1.03923 11.5805 0.93923 11.3805 1.03923 11.0805C1.13923 10.8805 1.33923 10.6805 1.63923 10.6805L11.0392 9.68051L14.9392 1.38051C15.0392 1.08051 15.4392 0.880506 15.7392 1.08051C15.9392 1.18051 16.0392 1.28051 16.0392 1.38051L19.9392 9.68051L29.3392 10.6805C29.6392 10.6805 29.8392 10.8805 29.9392 11.0805C30.0392 11.2805 29.9392 11.5805 29.7392 11.7805L22.5392 17.9805L24.3392 27.2805C24.3392 27.4805 24.2392 27.7805 24.0392 27.8805C24.0392 27.9805 23.8392 27.9805 23.7392 27.9805Z" fill="white" stroke="#303C42" stroke-linecap="round" stroke-linejoin="round"/>
</svg>
